<svg width="203" height="47" viewBox="0 0 203 47" fill="none" xmlns="http://www.w3.org/2000/svg">
<path d="M48.484 36V10.8H65.044V14.724H53.344V21.312H63.964V25.092H53.344V32.076H65.044V36H48.484ZM76.7083 36.432C75.0523 36.432 73.5643 36.024 72.2443 35.208C70.9483 34.392 69.9283 33.264 69.1843 31.824C68.4403 30.384 68.0683 28.764 68.0683 26.964C68.0683 25.116 68.4403 23.484 69.1843 22.068C69.9523 20.628 70.9963 19.5 72.3163 18.684C73.6603 17.844 75.1603 17.424 76.8163 17.424C78.1123 17.424 79.2523 17.664 80.2363 18.144C81.2203 18.624 82.0123 19.308 82.6123 20.196V10.08H87.4723V36H83.1523L82.6123 33.516C82.2523 34.02 81.7963 34.5 81.2443 34.956C80.7163 35.412 80.0803 35.772 79.3363 36.036C78.5923 36.3 77.7163 36.432 76.7083 36.432ZM77.8603 32.184C78.8203 32.184 79.6603 31.968 80.3803 31.536C81.1243 31.08 81.7003 30.456 82.1083 29.664C82.5163 28.872 82.7203 27.96 82.7203 26.928C82.7203 25.896 82.5163 24.984 82.1083 24.192C81.7003 23.4 81.1243 22.788 80.3803 22.356C79.6603 21.9 78.8203 21.672 77.8603 21.672C76.9483 21.672 76.1203 21.9 75.3763 22.356C74.6323 22.788 74.0443 23.4 73.6123 24.192C73.2043 24.984 73.0003 25.884 73.0003 26.892C73.0003 27.948 73.2043 28.872 73.6123 29.664C74.0443 30.456 74.6203 31.08 75.3403 31.536C76.0843 31.968 76.9243 32.184 77.8603 32.184ZM98.2821 36.432C96.8181 36.432 95.5581 36.132 94.5021 35.532C93.4701 34.908 92.6781 34.008 92.1261 32.832C91.5741 31.632 91.2981 30.156 91.2981 28.404V17.856H96.1581V27.9C96.1581 29.364 96.4581 30.468 97.0581 31.212C97.6821 31.956 98.6301 32.328 99.9021 32.328C100.718 32.328 101.438 32.148 102.062 31.788C102.686 31.404 103.178 30.864 103.538 30.168C103.922 29.448 104.114 28.572 104.114 27.54V17.856H108.938V36H104.69L104.294 33.048C103.766 34.08 102.986 34.908 101.954 35.532C100.922 36.132 99.6981 36.432 98.2821 36.432ZM113.086 36V10.8H122.518C124.558 10.8 126.25 11.148 127.594 11.844C128.938 12.54 129.934 13.476 130.582 14.652C131.23 15.828 131.554 17.172 131.554 18.684C131.554 20.076 131.242 21.36 130.618 22.536C129.994 23.712 129.01 24.672 127.666 25.416C126.322 26.136 124.606 26.496 122.518 26.496H117.946V36H113.086ZM117.946 22.572H122.23C123.79 22.572 124.906 22.224 125.578 21.528C126.274 20.808 126.622 19.86 126.622 18.684C126.622 17.436 126.274 16.476 125.578 15.804C124.906 15.108 123.79 14.76 122.23 14.76H117.946V22.572ZM141.139 36.432C139.675 36.432 138.415 36.132 137.359 35.532C136.327 34.908 135.535 34.008 134.983 32.832C134.431 31.632 134.155 30.156 134.155 28.404V17.856H139.015V27.9C139.015 29.364 139.315 30.468 139.915 31.212C140.539 31.956 141.487 32.328 142.759 32.328C143.575 32.328 144.295 32.148 144.919 31.788C145.543 31.404 146.035 30.864 146.395 30.168C146.779 29.448 146.971 28.572 146.971 27.54V17.856H151.795V36H147.547L147.151 33.048C146.623 34.08 145.843 34.908 144.811 35.532C143.779 36.132 142.555 36.432 141.139 36.432ZM155.835 36V10.08H160.695V36H155.835ZM172.128 36.432C170.472 36.432 169.032 36.168 167.808 35.64C166.584 35.112 165.624 34.38 164.928 33.444C164.232 32.508 163.836 31.452 163.74 30.276H168.564C168.684 30.732 168.888 31.152 169.176 31.536C169.464 31.896 169.848 32.184 170.328 32.4C170.808 32.616 171.384 32.724 172.056 32.724C172.704 32.724 173.232 32.64 173.64 32.472C174.048 32.28 174.348 32.028 174.54 31.716C174.756 31.404 174.864 31.08 174.864 30.744C174.864 30.24 174.72 29.856 174.432 29.592C174.144 29.304 173.724 29.076 173.172 28.908C172.62 28.74 171.948 28.572 171.156 28.404C170.292 28.236 169.44 28.032 168.6 27.792C167.784 27.528 167.052 27.204 166.404 26.82C165.756 26.436 165.24 25.944 164.856 25.344C164.472 24.744 164.28 24 164.28 23.112C164.28 22.032 164.568 21.072 165.144 20.232C165.72 19.368 166.56 18.684 167.664 18.18C168.768 17.676 170.1 17.424 171.66 17.424C173.844 17.424 175.572 17.916 176.844 18.9C178.116 19.884 178.872 21.24 179.112 22.968H174.54C174.396 22.416 174.072 21.984 173.568 21.672C173.088 21.336 172.44 21.168 171.624 21.168C170.76 21.168 170.1 21.324 169.644 21.636C169.188 21.948 168.96 22.356 168.96 22.86C168.96 23.196 169.104 23.496 169.392 23.76C169.704 24.024 170.136 24.252 170.688 24.444C171.24 24.612 171.912 24.78 172.704 24.948C174.096 25.236 175.32 25.572 176.376 25.956C177.432 26.316 178.26 26.844 178.86 27.54C179.46 28.212 179.76 29.196 179.76 30.492C179.76 31.644 179.448 32.676 178.824 33.588C178.2 34.476 177.312 35.172 176.16 35.676C175.032 36.18 173.688 36.432 172.128 36.432ZM191.864 36.432C190.04 36.432 188.42 36.048 187.004 35.28C185.612 34.488 184.52 33.396 183.728 32.004C182.96 30.588 182.576 28.956 182.576 27.108C182.576 25.212 182.96 23.544 183.728 22.104C184.52 20.64 185.612 19.5 187.004 18.684C188.396 17.844 190.016 17.424 191.864 17.424C193.664 17.424 195.236 17.82 196.58 18.612C197.924 19.404 198.968 20.472 199.712 21.816C200.456 23.16 200.828 24.684 200.828 26.388C200.828 26.628 200.828 26.904 200.828 27.216C200.828 27.504 200.804 27.804 200.756 28.116H186.032V25.164H195.932C195.86 23.988 195.44 23.064 194.672 22.392C193.928 21.72 192.992 21.384 191.864 21.384C191.048 21.384 190.292 21.576 189.596 21.96C188.9 22.32 188.348 22.884 187.94 23.652C187.556 24.42 187.364 25.392 187.364 26.568V27.612C187.364 28.596 187.544 29.46 187.904 30.204C188.288 30.924 188.816 31.488 189.488 31.896C190.16 32.28 190.94 32.472 191.828 32.472C192.716 32.472 193.448 32.28 194.024 31.896C194.624 31.512 195.068 31.02 195.356 30.42H200.324C199.988 31.548 199.424 32.568 198.632 33.48C197.84 34.392 196.868 35.112 195.716 35.64C194.564 36.168 193.28 36.432 191.864 36.432Z" fill="#193174"/>
<path d="M20.5 12.9583C18.2346 12.9583 16.062 13.8583 14.4602 15.4601C12.8583 17.062 11.9584 19.2346 11.9584 21.5C11.9584 23.7654 12.8583 25.938 14.4602 27.5399C16.062 29.1417 18.2346 30.0417 20.5 30.0417C22.7654 30.0417 24.938 29.1417 26.5399 27.5399C28.1418 25.938 29.0417 23.7654 29.0417 21.5C29.0417 19.2346 28.1418 17.062 26.5399 15.4601C24.938 13.8583 22.7654 12.9583 20.5 12.9583Z" fill="#193174"/>
<path d="M33.0904 26.8129C32.407 28.4358 31.4162 29.905 30.1691 31.1521C28.922 32.3992 27.4529 33.39 25.8299 34.0904C22.5158 35.4912 18.6891 35.5083 15.3749 34.1587C15.2895 31.8696 13.4274 30.0417 11.1212 30.0417C8.81495 30.0417 6.85037 31.9379 6.85037 34.3125C6.85037 36.6871 8.74662 38.5833 11.1212 38.5833C12.2999 38.5833 13.3762 38.105 14.1449 37.3362C16.1779 38.1562 18.3133 38.5833 20.517 38.5833C22.7208 38.5833 25.0612 38.1392 27.1624 37.2337C29.1954 36.3796 31.0233 35.1496 32.5949 33.5779C34.1666 32.0062 35.3966 30.1783 36.2508 28.1454C37.1391 26.0442 37.6004 23.8062 37.6004 21.5H34.1837C34.1837 23.345 33.8249 25.1387 33.1074 26.8129H33.0904ZM7.90953 16.1871C8.59286 14.5642 9.5837 13.095 10.8308 11.8479C12.0779 10.6008 13.547 9.61 15.1699 8.90958C18.4841 7.50875 22.3108 7.49166 25.6249 8.84125C25.7104 11.1304 27.5724 12.9583 29.8787 12.9583C32.1849 12.9583 34.1495 11.0621 34.1495 8.6875C34.1495 6.31291 32.2533 4.41666 29.8787 4.41666C28.6999 4.41666 27.6237 4.895 26.8549 5.66375C22.7037 3.98958 17.9545 4.02375 13.8204 5.76625C11.7874 6.62041 9.95953 7.85041 8.38786 9.42208C6.8162 10.9937 5.5862 12.8217 4.73203 14.8546C3.8404 16.9566 3.38141 19.2167 3.38245 21.5H6.79911C6.79911 19.655 7.15786 17.8612 7.87536 16.1871H7.90953Z" fill="#193174"/>
</svg>
